<svg xmlns="http://www.w3.org/2000/svg" xmlns:xlink="http://www.w3.org/1999/xlink" width="500" zoomAndPan="magnify" viewBox="0 0 375 374.999991" height="500" preserveAspectRatio="xMidYMid meet" version="1.0"><path fill="#000000" d="M 116.5625 344.636719 L 116.5625 361.117188 C 115.882812 360.839844 115.195312 360.554688 114.515625 360.265625 C 109.726562 358.242188 105.050781 356.019531 100.480469 353.625 L 100.480469 336.308594 C 105.703125 339.371094 111.0625 342.152344 116.5625 344.636719 Z M 100.480469 124.722656 L 100.480469 336.308594 C 105.703125 339.378906 111.0625 342.152344 116.554688 344.636719 L 116.554688 144.136719 Z M 247.574219 71.222656 L 227.203125 71.222656 L 123.070312 214.5625 L 123.070312 242.644531 L 147.226562 209.511719 L 230.484375 308.5 L 251.921875 308.5 L 156.875 195.574219 Z M 165.257812 146.617188 L 99.675781 68.03125 L 99.675781 95.363281 L 154.621094 161.265625 Z M 261.285156 261.6875 L 183.675781 168.6875 L 173.007812 183.320312 L 277.363281 308.5 L 277.363281 40.398438 C 272.148438 37.199219 266.789062 34.277344 261.285156 31.667969 Z M 65.652344 309.355469 C 33.105469 276.808594 15.179688 233.527344 15.179688 187.5 C 15.179688 141.472656 33.105469 98.199219 65.652344 65.652344 C 98.199219 33.105469 141.472656 15.179688 187.5 15.179688 C 213.441406 15.179688 238.511719 20.875 261.28125 31.675781 L 261.28125 15.089844 C 261.015625 14.972656 260.753906 14.855469 260.484375 14.742188 C 237.367188 4.960938 212.808594 0 187.5 0 C 162.191406 0 137.632812 4.960938 114.515625 14.742188 C 92.1875 24.179688 72.132812 37.699219 54.921875 54.921875 C 37.699219 72.132812 24.179688 92.1875 14.742188 114.515625 C 4.960938 137.640625 0 162.191406 0 187.5 C 0 212.808594 4.960938 237.367188 14.742188 260.484375 C 24.179688 282.808594 37.699219 302.867188 54.921875 320.078125 C 68.449219 333.605469 83.730469 344.839844 100.488281 353.617188 L 100.488281 336.300781 C 87.925781 328.941406 76.21875 319.925781 65.652344 309.355469 Z M 360.265625 114.515625 C 350.828125 92.1875 337.308594 72.132812 320.085938 54.921875 C 307.332031 42.167969 293.007812 31.441406 277.363281 22.898438 L 277.363281 40.40625 C 288.84375 47.449219 299.582031 55.886719 309.355469 65.652344 C 341.902344 98.199219 359.828125 141.472656 359.828125 187.5 C 359.828125 233.527344 341.902344 276.800781 309.355469 309.347656 C 276.808594 341.894531 233.535156 359.820312 187.507812 359.820312 C 162.640625 359.820312 138.574219 354.574219 116.5625 344.628906 L 116.5625 361.109375 C 139.082031 370.324219 162.941406 375 187.507812 375 C 212.816406 375 237.375 370.039062 260.492188 360.257812 C 282.816406 350.820312 302.875 337.300781 320.085938 320.078125 C 337.308594 302.859375 350.820312 282.8125 360.265625 260.484375 C 370.046875 237.359375 375.007812 212.808594 375.007812 187.5 C 375 162.191406 370.046875 137.640625 360.265625 114.515625 Z M 277.363281 40.398438 L 277.363281 22.890625 C 272.148438 20.039062 266.789062 17.4375 261.285156 15.082031 L 261.285156 31.675781 C 266.789062 34.285156 272.148438 37.199219 277.363281 40.398438 Z M 277.363281 40.398438 " fill-opacity="1" fill-rule="nonzero"/></svg>